<svg width="1200" height="630" viewBox="0 0 1200 630" fill="none" xmlns="http://www.w3.org/2000/svg">
  <rect width="1200" height="630" fill="#0a0f0a"/>
  
  <!-- Grid pattern -->
  <defs>
    <pattern id="grid" width="50" height="50" patternUnits="userSpaceOnUse">
      <path d="M 50 0 L 0 0 0 50" fill="none" stroke="rgba(251,78,20,0.05)" stroke-width="1"/>
    </pattern>
  </defs>
  <rect width="1200" height="630" fill="url(#grid)"/>
  
  <!-- Glow effects -->
  <ellipse cx="200" cy="150" rx="300" ry="200" fill="rgba(251,78,20,0.1)" filter="blur(80px)"/>
  <ellipse cx="1000" cy="500" rx="250" ry="180" fill="rgba(34,139,34,0.08)" filter="blur(60px)"/>
  
  <!-- Logo -->
  <g transform="translate(500, 120) scale(0.5)">
    <circle cx="162" cy="161.5" r="144.58" stroke="#FB4E14" stroke-width="9.5" fill="none"/>
    <path d="M249.19,176.08c-4.37,4.37-4.37,11.48,0,15.85s11.48,4.37,15.85,0c4.37-4.37,4.37-11.48,0-15.85C260.68,171.71,253.56,171.71,249.19,176.08z" fill="#FB4E14"/>
    <path d="M192.35,151.46c4.37-4.37,4.37-11.48,0-15.85s-11.48-4.37-15.85,0c-4.37,4.37-4.37,11.48,0,15.85S187.98,155.84,192.35,151.46z" fill="#FB4E14"/>
    <path d="M151.18,78.06c4.37-4.37,4.37-11.48,0-15.85s-11.48-4.37-15.85,0c-4.37,4.37-4.37,11.48,0,15.85S146.81,82.43,151.18,78.06z" fill="#FB4E14"/>
    <path d="M162,27.51C88,27.51,28.01,87.5,28.01,161.5S88,295.49,162,295.49S295.99,235.5,295.99,161.5S236,27.51,162,27.51z M249.74,203.86l-70.14,70.14L52.95,147.36l70.29-70.29c-2.56-7.43-0.9-16.01,5.02-21.93c8.27-8.27,21.73-8.27,30,0c8.27,8.27,8.27,21.73,0,30c-6.21,6.21-15.34,7.76-23.01,4.64l-56.51,56.51l45.31,45.31l40.56-40.56c-2.84-7.56-1.25-16.42,4.82-22.49c8.27-8.27,21.73-8.27,30,0c8.27,8.27,8.27,21.73,0,30c-6.06,6.06-14.9,7.66-22.45,4.84l-40.58,40.58l44.28,44.28l56.65-56.65c-2.88-7.57-1.29-16.48,4.8-22.57c8.27-8.27,21.73-8.27,30,0c8.27,8.27,8.27,21.73,0,30C266.08,205.04,257.27,206.65,249.74,203.86z" fill="#FB4E14"/>
  </g>
  
  <!-- Company name -->
  <text x="600" y="380" font-family="system-ui, -apple-system, sans-serif" font-size="72" font-weight="700" fill="white" text-anchor="middle">Evosoft LLC</text>
  
  <!-- Tagline -->
  <text x="600" y="440" font-family="system-ui, -apple-system, sans-serif" font-size="28" fill="#a0b0a0" text-anchor="middle">Software Engineering Consulting</text>
  
  <!-- Services -->
  <text x="600" y="520" font-family="monospace" font-size="18" fill="#607060" text-anchor="middle">Desktop • Mobile • Enterprise • Systems</text>
</svg>

