<svg xmlns="http://www.w3.org/2000/svg" viewBox="-5 -5 334 334">
  <!-- White circle (background + border) -->
  <circle cx="162" cy="161.5" r="146" fill="#ffffff"/>
  <!-- Orange rotating ring (floating outside with gap) -->
  <circle cx="162" cy="161.5" r="164" stroke="#FB4E14" stroke-width="8" fill="none"/>
  <!-- Orange E logo -->
  <g fill="#FB4E14">
    <path d="M249.19,176.08c-4.37,4.37-4.37,11.48,0,15.85s11.48,4.37,15.85,0c4.37-4.37,4.37-11.48,0-15.85C260.68,171.71,253.56,171.71,249.19,176.08z"/>
    <path d="M192.35,151.46c4.37-4.37,4.37-11.48,0-15.85s-11.48-4.37-15.85,0c-4.37,4.37-4.37,11.48,0,15.85S187.98,155.84,192.35,151.46z"/>
    <path d="M151.18,78.06c4.37-4.37,4.37-11.48,0-15.85s-11.48-4.37-15.85,0c-4.37,4.37-4.37,11.48,0,15.85S146.81,82.43,151.18,78.06z"/>
    <path d="M162,27.51C88,27.51,28.01,87.5,28.01,161.5S88,295.49,162,295.49S295.99,235.5,295.99,161.5S236,27.51,162,27.51z M249.74,203.86l-70.14,70.14L52.95,147.36l70.29-70.29c-2.56-7.43-0.9-16.01,5.02-21.93c8.27-8.27,21.73-8.27,30,0c8.27,8.27,8.27,21.73,0,30c-6.21,6.21-15.34,7.76-23.01,4.64l-56.51,56.51l45.31,45.31l40.56-40.56c-2.84-7.56-1.25-16.42,4.82-22.49c8.27-8.27,21.73-8.27,30,0c8.27,8.27,8.27,21.73,0,30c-6.06,6.06-14.9,7.66-22.45,4.84l-40.58,40.58l44.28,44.28l56.65-56.65c-2.88-7.57-1.29-16.48,4.8-22.57c8.27-8.27,21.73-8.27,30,0c8.27,8.27,8.27,21.73,0,30C266.08,205.04,257.27,206.65,249.74,203.86z"/>
  </g>
</svg>
